<?xml version="1.0" encoding="UTF-8"?>
<svg xmlns="http://www.w3.org/2000/svg" xmlns:xlink="http://www.w3.org/1999/xlink" width="76px" height="76px" viewBox="0 0 76 76" version="1.1">
<defs>
<radialGradient id="radial0" gradientUnits="userSpaceOnUse" cx="44.9101" cy="46.8595" fx="44.9101" fy="46.8595" r="43.9732" gradientTransform="matrix(0.834219,0,0,0.834219,0.417582,0.417582)">
<stop offset="0" style="stop-color:rgb(24.705882%,78.823529%,65.882353%);stop-opacity:1;"/>
<stop offset="1" style="stop-color:rgb(10.980392%,63.529412%,76.862745%);stop-opacity:1;"/>
</radialGradient>
<radialGradient id="radial1" gradientUnits="userSpaceOnUse" cx="44.9101" cy="46.8595" fx="44.9101" fy="46.8595" r="43.9733" gradientTransform="matrix(0.834219,0,0,0.834219,0.417582,0.417582)">
<stop offset="0" style="stop-color:rgb(24.705882%,78.823529%,65.882353%);stop-opacity:1;"/>
<stop offset="1" style="stop-color:rgb(10.980392%,63.529412%,76.862745%);stop-opacity:1;"/>
</radialGradient>
<radialGradient id="radial2" gradientUnits="userSpaceOnUse" cx="44.91" cy="46.8595" fx="44.91" fy="46.8595" r="43.9731" gradientTransform="matrix(0.834219,0,0,0.834219,0.417582,0.417582)">
<stop offset="0" style="stop-color:rgb(24.705882%,78.823529%,65.882353%);stop-opacity:1;"/>
<stop offset="1" style="stop-color:rgb(10.980392%,63.529412%,76.862745%);stop-opacity:1;"/>
</radialGradient>
<radialGradient id="radial3" gradientUnits="userSpaceOnUse" cx="44.9101" cy="46.8595" fx="44.9101" fy="46.8595" r="43.9733" gradientTransform="matrix(0.834219,0,0,0.834219,0.417582,0.417582)">
<stop offset="0" style="stop-color:rgb(24.705882%,78.823529%,65.882353%);stop-opacity:1;"/>
<stop offset="1" style="stop-color:rgb(10.980392%,63.529412%,76.862745%);stop-opacity:1;"/>
</radialGradient>
</defs>
<g id="surface1">
<path style=" stroke:none;fill-rule:nonzero;fill:rgb(100%,100%,100%);fill-opacity:1;" d="M 68.601562 20.203125 L 37.953125 2.464844 L 7.3125 20.214844 L 7.3125 55.648438 L 38.011719 73.375 L 68.601562 55.640625 Z M 68.601562 20.203125 "/>
<path style=" stroke:none;fill-rule:nonzero;fill:url(#radial0);" d="M 20.832031 38.789062 C 19.386719 34.125 16.050781 23.351562 16.050781 23.09375 L 12.621094 25.027344 L 12.621094 52.546875 L 16.050781 54.519531 L 16.050781 35.410156 L 22.074219 57.984375 L 24.996094 59.664062 L 24.996094 17.179688 L 20.871094 19.445312 Z M 20.832031 38.789062 "/>
<path style=" stroke:none;fill-rule:nonzero;fill:url(#radial1);" d="M 37.964844 13.640625 L 47.691406 19.296875 L 49.921875 15.832031 L 37.964844 8.816406 L 28.496094 14.484375 L 28.496094 61.492188 L 32.367188 64.042969 L 32.367188 40.316406 L 46.785156 40.316406 L 46.785156 35.539062 L 32.367188 35.539062 L 32.367188 16.816406 Z M 37.964844 13.640625 "/>
<path style=" stroke:none;fill-rule:nonzero;fill:url(#radial2);" d="M 49.703125 20.390625 L 54.851562 23.75 L 54.851562 58.171875 L 59.121094 55.792969 L 59.121094 26.085938 L 64.410156 29.699219 L 64.410156 25.175781 L 51.820312 17.21875 Z M 49.703125 20.390625 "/>
<path style=" stroke:none;fill-rule:nonzero;fill:url(#radial3);" d="M 37.953125 0.417969 L 5.398438 19.296875 L 5.398438 56.710938 L 38.007812 75.496094 L 70.515625 56.699219 L 70.515625 19.289062 Z M 9.261719 54.519531 L 9.261719 21.339844 L 37.953125 4.726562 L 66.652344 21.332031 L 66.652344 54.511719 L 38.007812 71.117188 Z M 9.261719 54.519531 "/>
</g>
</svg>
