<?xml version="1.0" encoding="UTF-8"?>
<svg xmlns="http://www.w3.org/2000/svg" xmlns:xlink="http://www.w3.org/1999/xlink" width="16px" height="16px" viewBox="0 0 16 16" version="1.1">
<defs>
<radialGradient id="radial0" gradientUnits="userSpaceOnUse" cx="44.9101" cy="46.8595" fx="44.9101" fy="46.8595" r="43.9732" gradientTransform="matrix(0.175625,0,0,0.175625,0.0879121,0.0879121)">
<stop offset="0" style="stop-color:rgb(24.705882%,78.823529%,65.882353%);stop-opacity:1;"/>
<stop offset="1" style="stop-color:rgb(10.980392%,63.529412%,76.862745%);stop-opacity:1;"/>
</radialGradient>
<radialGradient id="radial1" gradientUnits="userSpaceOnUse" cx="44.9101" cy="46.8595" fx="44.9101" fy="46.8595" r="43.9733" gradientTransform="matrix(0.175625,0,0,0.175625,0.0879121,0.0879121)">
<stop offset="0" style="stop-color:rgb(24.705882%,78.823529%,65.882353%);stop-opacity:1;"/>
<stop offset="1" style="stop-color:rgb(10.980392%,63.529412%,76.862745%);stop-opacity:1;"/>
</radialGradient>
<radialGradient id="radial2" gradientUnits="userSpaceOnUse" cx="44.91" cy="46.8595" fx="44.91" fy="46.8595" r="43.9731" gradientTransform="matrix(0.175625,0,0,0.175625,0.0879121,0.0879121)">
<stop offset="0" style="stop-color:rgb(24.705882%,78.823529%,65.882353%);stop-opacity:1;"/>
<stop offset="1" style="stop-color:rgb(10.980392%,63.529412%,76.862745%);stop-opacity:1;"/>
</radialGradient>
<radialGradient id="radial3" gradientUnits="userSpaceOnUse" cx="44.9101" cy="46.8595" fx="44.9101" fy="46.8595" r="43.9733" gradientTransform="matrix(0.175625,0,0,0.175625,0.0879121,0.0879121)">
<stop offset="0" style="stop-color:rgb(24.705882%,78.823529%,65.882353%);stop-opacity:1;"/>
<stop offset="1" style="stop-color:rgb(10.980392%,63.529412%,76.862745%);stop-opacity:1;"/>
</radialGradient>
</defs>
<g id="surface1">
<path style=" stroke:none;fill-rule:nonzero;fill:rgb(100%,100%,100%);fill-opacity:1;" d="M 14.441406 4.253906 L 7.988281 0.519531 L 1.539062 4.253906 L 1.539062 11.714844 L 8.003906 15.449219 L 14.441406 11.714844 Z M 14.441406 4.253906 "/>
<path style=" stroke:none;fill-rule:nonzero;fill:url(#radial0);" d="M 4.386719 8.167969 C 4.082031 7.183594 3.378906 4.914062 3.378906 4.863281 L 2.65625 5.269531 L 2.65625 11.0625 L 3.378906 11.476562 L 3.378906 7.453125 L 4.648438 12.207031 L 5.261719 12.5625 L 5.261719 3.617188 L 4.394531 4.09375 Z M 4.386719 8.167969 "/>
<path style=" stroke:none;fill-rule:nonzero;fill:url(#radial1);" d="M 7.992188 2.871094 L 10.039062 4.0625 L 10.507812 3.332031 L 7.992188 1.855469 L 6 3.050781 L 6 12.945312 L 6.8125 13.484375 L 6.8125 8.488281 L 9.847656 8.488281 L 9.847656 7.480469 L 6.8125 7.480469 L 6.8125 3.539062 Z M 7.992188 2.871094 "/>
<path style=" stroke:none;fill-rule:nonzero;fill:url(#radial2);" d="M 10.464844 4.292969 L 11.546875 5 L 11.546875 12.246094 L 12.445312 11.746094 L 12.445312 5.492188 L 13.558594 6.253906 L 13.558594 5.300781 L 10.910156 3.625 Z M 10.464844 4.292969 "/>
<path style=" stroke:none;fill-rule:nonzero;fill:url(#radial3);" d="M 7.988281 0.0898438 L 1.136719 4.0625 L 1.136719 11.9375 L 8 15.894531 L 14.84375 11.9375 L 14.84375 4.0625 Z M 1.949219 11.476562 L 1.949219 4.492188 L 7.988281 0.996094 L 14.03125 4.492188 L 14.03125 11.476562 L 8 14.972656 Z M 1.949219 11.476562 "/>
</g>
</svg>
