<svg width="28" height="28" viewBox="0 0 28 28" fill="none" xmlns="http://www.w3.org/2000/svg">
<path d="M11.6949 4.15032C12.6995 2.34164 15.3005 2.34164 16.3051 4.15032C16.9004 5.22217 18.156 5.74225 19.3348 5.40528C21.3241 4.83667 23.1633 6.67592 22.5947 8.66516C22.2577 9.84403 22.7778 11.0996 23.8497 11.6949C25.6584 12.6995 25.6584 15.3005 23.8497 16.3051C22.7778 16.9004 22.2577 18.156 22.5947 19.3348C23.1633 21.3241 21.3241 23.1633 19.3348 22.5947C18.156 22.2577 16.9004 22.7778 16.3051 23.8497C15.3005 25.6584 12.6995 25.6584 11.6949 23.8497C11.0996 22.7778 9.84403 22.2577 8.66516 22.5947C6.67592 23.1633 4.83667 21.3241 5.40528 19.3348C5.74225 18.156 5.22217 16.9004 4.15032 16.3051C2.34164 15.3005 2.34164 12.6995 4.15032 11.6949C5.22217 11.0996 5.74225 9.84403 5.40528 8.66516C4.83667 6.67592 6.67592 4.83667 8.66516 5.40528C9.84403 5.74225 11.0996 5.22217 11.6949 4.15032Z" fill="#FED144"/>
<path d="M18.6667 10L12.8 17.3333L10.1333 14" stroke="#282329" stroke-width="2" stroke-linecap="round" stroke-linejoin="round"/>
</svg>
