<svg width="16" height="19" viewBox="0 0 16 19" fill="none" xmlns="http://www.w3.org/2000/svg">
<path d="M13.059 17.9471L12.983 17.87C12.5495 18.2902 12.1226 18.4477 11.7022 18.468C11.2644 18.4891 10.7923 18.3629 10.2821 18.14L10.2821 18.14L10.2763 18.1375C9.00464 17.6008 7.81025 17.5779 6.4714 18.1368L6.47139 18.1367L6.46626 18.1389C5.74462 18.4496 5.26327 18.528 4.88924 18.4761C4.52848 18.426 4.19437 18.2446 3.78466 17.8703C1.30931 15.3131 0.279164 12.1137 0.539181 9.55939C0.669097 8.28312 1.11776 7.18841 1.84251 6.40176C2.55645 5.62686 3.56555 5.12024 4.8912 5.04741C5.51593 5.08361 6.05531 5.25541 6.56612 5.4422C6.63769 5.46837 6.71069 5.49576 6.78479 5.52356C7.2105 5.68327 7.67212 5.85646 8.10301 5.88919L8.17237 5.89445L8.24053 5.88059C8.72595 5.78186 9.21819 5.61123 9.67353 5.45338C9.83678 5.3968 9.99528 5.34185 10.147 5.29246C10.7504 5.09603 11.3048 4.96315 11.8694 5.00309C13.1295 5.10362 14.0835 5.53938 14.7655 6.28915C11.7912 8.50079 12.5218 12.6695 15.3633 14.1795C14.7975 15.5783 14.0821 16.8876 12.9872 17.8668L13.059 17.9471ZM9.12359 3.81618C8.90777 3.90722 8.70883 3.96292 8.53347 3.98891C8.64033 2.32517 9.92576 0.950736 11.4995 0.581995C11.4488 1.53567 10.9724 2.37869 10.3288 3.00208C9.95024 3.36871 9.52588 3.64647 9.12359 3.81618Z" fill="#476285" stroke="#476285"/>
</svg>
