<svg width="132" height="132" viewBox="0 0 132 132" fill="none" xmlns="http://www.w3.org/2000/svg">
<rect width="132" height="132" rx="12" fill="white"/>
<g clip-path="url(#clip0_2_1331)">
<path d="M12 12H16.32V16.3199V37.92V42.24H12V12Z" fill="#21204A"/>
<path d="M16.32 12H42.24V42.24H16.32V37.92H37.92V16.32L16.32 16.3199V12Z" fill="#21204A"/>
<path d="M55.2 12H59.52V20.64H50.88V24.96H46.56V16.3199H55.2V12Z" fill="#21204A"/>
<path d="M94.08 89.76H89.76V94.08H94.08V89.76Z" fill="#21204A"/>
<path fill-rule="evenodd" clip-rule="evenodd" d="M63.84 42.24H59.52V29.28H55.2V24.96H50.88V29.28H46.56V46.56H37.92V50.88H46.56V63.84H55.2V68.16H59.52V76.8H42.24V72.48H50.88V68.16H42.24V63.84H37.92V68.16H33.6V63.84H29.28V55.2H33.6V59.52H42.24V55.2H33.6V50.88H29.28V46.56H24.96V50.88H29.28V55.2H20.64V63.84H16.32V68.16H20.64V63.84H29.28V68.16H24.96V76.8H16.32V81.12V85.44H24.96V81.12H29.28V85.44H46.56V94.08H55.2V98.4H50.88V102.72H46.56V107.04H50.88V111.36H46.56V120H59.52V115.68H63.84V120H72.48V115.68H76.8V120H98.4V115.68H94.08V111.36H89.76V115.68H85.44V102.72H94.08V107.04H98.4V111.36H102.72V115.68H107.04V111.36H111.36V102.72H115.68V94.08H120V85.44H115.68V89.76H111.36V81.12H115.68V76.8H120V63.84H111.36V68.16H107.04V63.84H102.72V72.48H98.4V68.16H94.08V63.84H89.76V59.52H98.4V55.2H94.08V50.88H102.72V46.56H89.76V50.88H81.12V55.2H85.44V59.52H81.12V63.84H76.8V59.52H72.48V50.88H76.8V46.56H81.12V42.24H85.44V37.92H81.12V33.6H85.44V29.28H76.8V24.96H81.12V16.32H85.44V12H68.16V20.64H72.48V29.28H68.16V24.96H63.84V42.24ZM72.48 37.92H68.16V42.24H63.84V46.56H72.48V37.92ZM76.8 37.92V29.28H72.48V37.92H76.8ZM76.8 37.92V42.24H81.12V37.92H76.8ZM76.8 68.16V63.84H72.48V68.16H76.8ZM68.16 81.12V98.4H76.8V102.72H81.12V94.08H72.48V89.76H76.8V81.12H85.44V76.8H89.76V81.12H98.4V76.8H94.08V72.48H81.12V68.16H76.8V72.48H72.48V81.12H68.16ZM63.84 81.12H68.16V63.84H63.84V81.12ZM63.84 81.12H59.52V85.44H55.2V89.76H63.84V81.12ZM107.04 76.8V72.48H102.72V76.8H107.04ZM111.36 76.8V81.12H107.04V76.8H111.36ZM111.36 76.8V68.16H115.68V76.8H111.36ZM111.36 89.76H102.72V94.08H111.36V89.76ZM111.36 102.72V98.4H102.72V107.04H107.04V102.72H111.36ZM63.84 107.04V111.36H59.52V115.68H50.88V111.36H55.2V107.04H63.84ZM63.84 102.72H72.48V107.04H63.84V102.72ZM63.84 102.72V94.08H59.52V98.4H55.2V102.72H63.84ZM37.92 72.48V76.8H42.24V81.12H29.28V72.48H37.92ZM37.92 72.48V68.16H42.24V72.48H37.92ZM46.56 50.88H55.2V55.2H50.88V59.52H59.52V46.56H55.2V33.6H50.88V46.56H46.56V50.88ZM98.4 98.4V85.44H85.44V98.4H98.4Z" fill="#21204A"/>
<path d="M98.4 20.64V33.6H111.36V20.64H98.4Z" fill="#21204A"/>
<path fill-rule="evenodd" clip-rule="evenodd" d="M89.76 12V42.24H120V12H89.76ZM115.68 37.92H94.08V16.32H115.68V37.92Z" fill="#21204A"/>
<path d="M20.64 20.64V33.6H33.6V20.64H20.64Z" fill="#21204A"/>
<path d="M12 46.56H16.32V50.88H12V46.56Z" fill="#21204A"/>
<path d="M20.64 46.56H16.32V50.88H20.64V46.56Z" fill="#21204A"/>
<path d="M107.04 46.56H115.68V50.88H107.04V46.56Z" fill="#21204A"/>
<path d="M115.68 50.88H120V59.52H111.36V55.2H115.68V50.88Z" fill="#21204A"/>
<path d="M16.32 59.52H12V68.16H16.32V63.84L16.32 59.52Z" fill="#21204A"/>
<path d="M12 72.48H16.32L16.32 76.8H12V72.48Z" fill="#21204A"/>
<path d="M12 81.12H16.32V85.44H12V81.12Z" fill="#21204A"/>
<path d="M12 89.76H16.32V94.08V115.68V120H12V89.76Z" fill="#21204A"/>
<path d="M16.32 89.76V94.08H37.92V115.68H16.32V120H42.24V89.76H16.32Z" fill="#21204A"/>
<path d="M20.64 98.4V111.36H33.6V98.4H20.64Z" fill="#21204A"/>
<path d="M115.68 107.04H120V111.36H115.68V107.04Z" fill="#21204A"/>
<path d="M111.36 115.68V120H120V115.68H111.36Z" fill="#21204A"/>
</g>
<defs>
<clipPath id="clip0_2_1331">
<rect width="108" height="108" fill="white" transform="translate(12 12)"/>
</clipPath>
</defs>
</svg>
