<svg width="16" height="17" viewBox="0 0 16 17" fill="none" xmlns="http://www.w3.org/2000/svg">
<path d="M8.16379 0.5C10.0379 0.5 11.6251 1.12102 12.8913 2.15282L11.3001 3.744C10.4098 3.04461 9.33408 2.68872 8.16379 2.68872C5.18268 2.68872 2.78078 5.19971 2.78078 8.15881C2.78078 11.1165 5.1821 13.6331 8.16379 13.6331C10.8141 13.6331 12.7152 12.0956 13.1053 9.90426L13.21 9.31662H12.6131H8.66379V7.13287H15.4172C15.4712 7.52439 15.5 7.92907 15.5 8.34707C15.5 10.5661 14.7591 12.4309 13.491 13.7382C12.2245 15.0439 10.3995 15.8276 8.16379 15.8276H8.16364C7.15715 15.8279 6.16046 15.6299 5.23053 15.2448C4.30059 14.8598 3.45564 14.2953 2.74394 13.5836C2.03225 12.8719 1.46776 12.027 1.08273 11.0971C0.69771 10.1671 0.499693 9.17043 0.5 8.16394L0.5 8.16364C0.499693 7.15715 0.69771 6.16046 1.08273 5.23053C1.46776 4.30059 2.03225 3.45564 2.74394 2.74394C3.45564 2.03225 4.30059 1.46776 5.23053 1.08273C6.16046 0.69771 7.15715 0.499693 8.16364 0.5H8.16379Z" fill="#476285" stroke="#476285"/>
</svg>
