<svg width="20" height="20" viewBox="0 0 20 20" fill="none" xmlns="http://www.w3.org/2000/svg">
<g clip-path="url(#clip0_434_16494)">
<path opacity="0.1" d="M10 20C4.47715 20 0 15.5229 0 10C0 4.47715 4.47715 0 10 0C15.5229 0 20 4.47715 20 10C20 15.5229 15.5229 20 10 20Z" fill="#6692CC"/>
<path d="M14.3748 10.1373L9.68874 2.5V8.04375L13.7914 9.8768L9.68874 8.04485V12.858L14.3748 10.1375L14.375 10.1375L14.3749 10.1374L14.375 10.1374L14.3748 10.1373ZM9.68749 8.04375V2.5L5.00199 10.1373L5.00189 10.1374L5.00194 10.1374L5.00189 10.1375L5.00204 10.1375L9.68749 12.858V8.04485L5.58534 9.8768L9.68749 8.04375ZM9.68749 13.7299V17.4968L4.99875 11.0099L9.68749 13.7299ZM9.68874 13.7293V17.4968L14.375 11.0099L9.68874 13.7293Z" fill="#6692CC"/>
</g>
<defs>
<clipPath id="clip0_434_16494">
<rect width="20" height="20" fill="white"/>
</clipPath>
</defs>
</svg>
