<svg width="64" height="64" viewBox="0 0 64 64" fill="none" xmlns="http://www.w3.org/2000/svg">
<rect width="64" height="64" rx="24" fill="#FAFCFF"/>
<path opacity="0.4" d="M37.434 18.6667H41.9486C43.8183 18.6667 45.3333 20.1946 45.3333 22.08V26.6328C45.3333 28.5183 43.8183 30.0461 41.9486 30.0461H37.434C35.5643 30.0461 34.0493 28.5183 34.0493 26.6328V22.08C34.0493 20.1946 35.5643 18.6667 37.434 18.6667Z" fill="#476285"/>
<path d="M26.566 33.9541C28.4357 33.9541 29.9507 35.4819 29.9507 37.3674V41.9201C29.9507 43.8043 28.4357 45.3334 26.566 45.3334H22.0514C20.1817 45.3334 18.6667 43.8043 18.6667 41.9201V37.3674C18.6667 35.4819 20.1817 33.9541 22.0514 33.9541H26.566ZM41.9486 33.9541C43.8183 33.9541 45.3333 35.4819 45.3333 37.3674V41.9201C45.3333 43.8043 43.8183 45.3334 41.9486 45.3334H37.434C35.5643 45.3334 34.0493 43.8043 34.0493 41.9201V37.3674C34.0493 35.4819 35.5643 33.9541 37.434 33.9541H41.9486ZM26.566 18.6667C28.4357 18.6667 29.9507 20.1946 29.9507 22.08V26.6328C29.9507 28.5183 28.4357 30.0461 26.566 30.0461H22.0514C20.1817 30.0461 18.6667 28.5183 18.6667 26.6328V22.08C18.6667 20.1946 20.1817 18.6667 22.0514 18.6667H26.566Z" fill="#476285"/>
</svg>
