<svg width="64" height="64" viewBox="0 0 64 64" fill="none" xmlns="http://www.w3.org/2000/svg">
<rect width="64" height="64" rx="24" fill="#FAFCFF"/>
<path opacity="0.4" d="M37.7771 45.3334H26.2216C21.7025 45.3334 18.6667 42.1639 18.6667 37.4458V26.5557C18.6667 21.8376 21.7025 18.6667 26.2216 18.6667H37.7784C42.2975 18.6667 45.3333 21.8376 45.3333 26.5557V37.4458C45.3333 42.1639 42.2975 45.3334 37.7771 45.3334Z" fill="#476285"/>
<path d="M36.5712 33.453C36.8672 33.065 37.9659 31.8517 39.3859 32.7157C40.2912 33.2597 41.0525 33.9957 41.8672 34.7837C42.1779 35.085 42.4005 35.429 42.5472 35.7957C42.9912 36.905 42.7605 38.2383 42.2859 39.337C41.7232 40.645 40.6459 41.633 39.2885 42.065C38.6859 42.2583 38.0539 42.341 37.4232 42.341H26.2485C25.1365 42.341 24.1525 42.0823 23.3459 41.597C22.8405 41.293 22.7512 40.593 23.1259 40.137C23.7525 39.377 24.3712 38.6143 24.9952 37.845C26.1845 36.373 26.9859 35.9463 27.8765 36.321C28.2379 36.4757 28.6005 36.709 28.9739 36.9543C29.9685 37.613 31.3512 38.517 33.1725 37.5357C34.4259 36.8503 35.1499 35.6743 35.7819 34.6557C36.0405 34.241 36.2859 33.8277 36.5712 33.453ZM27.68 24.2522C29.5067 24.2522 30.9933 25.7402 30.9933 27.5669C30.9933 29.3935 29.5067 30.8802 27.68 30.8802C25.852 30.8802 24.3667 29.3935 24.3667 27.5669C24.3667 25.7402 25.852 24.2522 27.68 24.2522Z" fill="#476285"/>
</svg>
