<svg width="64" height="64" viewBox="0 0 64 64" fill="none" xmlns="http://www.w3.org/2000/svg">
<rect width="64" height="64" rx="24" fill="#FAFCFF"/>
<path d="M44.5699 19.4378C43.9032 18.7565 42.9165 18.5045 41.9965 18.7711L20.5432 24.9698C19.5726 25.2391 18.8846 26.0085 18.6992 26.9845C18.5099 27.9791 19.1712 29.2431 20.0352 29.7711L26.7432 33.8671C27.4312 34.2885 28.3192 34.1831 28.8885 33.6125L36.5699 25.9311C36.9566 25.5298 37.5965 25.5298 37.9832 25.9311C38.3699 26.3165 38.3699 26.9445 37.9832 27.3445L30.2886 35.0258C29.7179 35.5965 29.6112 36.4818 30.0312 37.1711L34.1299 43.9045C34.6099 44.7031 35.4366 45.1578 36.3432 45.1578C36.4499 45.1578 36.5699 45.1578 36.6766 45.1431C37.7166 45.0111 38.5432 44.3031 38.8499 43.3031L45.2099 22.0111C45.4899 21.1045 45.2365 20.1178 44.5699 19.4378Z" fill="#476285"/>
<path opacity="0.4" d="M28.6019 41.5231C28.9912 41.9138 28.9912 42.5471 28.6019 42.9378L26.7805 44.7578C26.5859 44.9538 26.3299 45.0511 26.0739 45.0511C25.8179 45.0511 25.5619 44.9538 25.3672 44.7578C24.9765 44.3671 24.9765 43.7351 25.3672 43.3444L27.1872 41.5231C27.5779 41.1338 28.2112 41.1338 28.6019 41.5231ZM27.5569 36.4724C27.9463 36.8631 27.9463 37.4964 27.5569 37.8871L25.7356 39.7071C25.5409 39.9031 25.2849 40.0004 25.0289 40.0004C24.7729 40.0004 24.5169 39.9031 24.3223 39.7071C23.9316 39.3164 23.9316 38.6844 24.3223 38.2938L26.1423 36.4724C26.5329 36.0831 27.1663 36.0831 27.5569 36.4724ZM22.542 34.8826C22.9313 35.2732 22.9313 35.9066 22.542 36.2972L20.7207 38.1172C20.526 38.3132 20.27 38.4106 20.014 38.4106C19.758 38.4106 19.502 38.3132 19.3073 38.1172C18.9167 37.7266 18.9167 37.0946 19.3073 36.7039L21.1273 34.8826C21.518 34.4932 22.1513 34.4932 22.542 34.8826Z" fill="#476285"/>
</svg>
