<svg width="64" height="64" viewBox="0 0 64 64" fill="none" xmlns="http://www.w3.org/2000/svg">
<rect width="64" height="64" rx="24" fill="#FAFCFF"/>
<path d="M38.0208 20C42.6193 20 45.3334 22.6461 45.3334 27.1757H39.6919V27.222C37.0736 27.222 34.9511 29.2913 34.9511 31.844C34.9511 34.3967 37.0736 36.4661 39.6919 36.4661H45.3334V36.882C45.3334 41.3539 42.6193 44 38.0208 44H25.9793C21.3808 44 18.6667 41.3539 18.6667 36.882V27.118C18.6667 22.6461 21.3808 20 25.9793 20H38.0208ZM44.3378 29.1632C44.8876 29.1632 45.3334 29.5978 45.3334 30.1338V33.5079C45.327 34.0414 44.885 34.4723 44.3378 34.4786H39.7985C38.4731 34.496 37.314 33.6112 37.0134 32.3524C36.8628 31.5711 37.0742 30.7648 37.5908 30.1496C38.1074 29.5345 38.8765 29.1734 39.6919 29.1632H44.3378ZM40.3319 30.7232H39.8934C39.6241 30.7201 39.3648 30.8222 39.1733 31.0067C38.9818 31.1912 38.8741 31.4428 38.8741 31.7053C38.8741 32.2561 39.3285 32.7043 39.8934 32.7106H40.3319C40.8948 32.7106 41.3511 32.2657 41.3511 31.7169C41.3511 31.1681 40.8948 30.7232 40.3319 30.7232ZM32.5096 25.1883H24.9837C24.4254 25.1882 23.971 25.6261 23.9645 26.1704C23.9645 26.7212 24.4189 27.1694 24.9837 27.1757H32.5096C33.0726 27.1757 33.5289 26.7308 33.5289 26.182C33.5289 25.6332 33.0726 25.1883 32.5096 25.1883Z" fill="#476285"/>
</svg>
