<svg width="154" height="49" viewBox="0 0 154 49" fill="none" xmlns="http://www.w3.org/2000/svg">
<path d="M27.1646 19.38V30.5H25.3406V19.38H27.1646ZM33.1076 26.052C33.1076 25.1667 33.289 24.3827 33.6516 23.7C34.025 23.0173 34.5263 22.4893 35.1556 22.116C35.7956 21.732 36.4996 21.54 37.2676 21.54C37.961 21.54 38.5636 21.6787 39.0756 21.956C39.5983 22.2227 40.0143 22.5587 40.3236 22.964V21.684H42.1636V30.5H40.3236V29.188C40.0143 29.604 39.593 29.9507 39.0596 30.228C38.5263 30.5053 37.9183 30.644 37.2356 30.644C36.4783 30.644 35.785 30.452 35.1556 30.068C34.5263 29.6733 34.025 29.1293 33.6516 28.436C33.289 27.732 33.1076 26.9373 33.1076 26.052ZM40.3236 26.084C40.3236 25.476 40.1956 24.948 39.9396 24.5C39.6943 24.052 39.369 23.7107 38.9636 23.476C38.5583 23.2413 38.121 23.124 37.6516 23.124C37.1823 23.124 36.745 23.2413 36.3396 23.476C35.9343 23.7 35.6036 24.036 35.3476 24.484C35.1023 24.9213 34.9796 25.444 34.9796 26.052C34.9796 26.66 35.1023 27.1933 35.3476 27.652C35.6036 28.1107 35.9343 28.4627 36.3396 28.708C36.7556 28.9427 37.193 29.06 37.6516 29.06C38.121 29.06 38.5583 28.9427 38.9636 28.708C39.369 28.4733 39.6943 28.132 39.9396 27.684C40.1956 27.2253 40.3236 26.692 40.3236 26.084ZM55.2314 21.54C55.9247 21.54 56.5434 21.684 57.0874 21.972C57.642 22.26 58.074 22.6867 58.3834 23.252C58.7034 23.8173 58.8634 24.5 58.8634 25.3V30.5H57.0554V25.572C57.0554 24.7827 56.858 24.18 56.4634 23.764C56.0687 23.3373 55.53 23.124 54.8474 23.124C54.1647 23.124 53.6207 23.3373 53.2154 23.764C52.8207 24.18 52.6234 24.7827 52.6234 25.572V30.5H50.8154V25.572C50.8154 24.7827 50.618 24.18 50.2234 23.764C49.8287 23.3373 49.29 23.124 48.6074 23.124C47.9247 23.124 47.3807 23.3373 46.9754 23.764C46.5807 24.18 46.3834 24.7827 46.3834 25.572V30.5H44.5594V21.684H46.3834V22.692C46.682 22.3293 47.0607 22.0467 47.5194 21.844C47.978 21.6413 48.4687 21.54 48.9914 21.54C49.6954 21.54 50.3247 21.6893 50.8794 21.988C51.434 22.2867 51.8607 22.7187 52.1594 23.284C52.426 22.7507 52.842 22.3293 53.4074 22.02C53.9727 21.7 54.5807 21.54 55.2314 21.54ZM68.8889 26.052C68.8889 25.1667 69.0702 24.3827 69.4329 23.7C69.8062 23.0173 70.3075 22.4893 70.9369 22.116C71.5769 21.732 72.2809 21.54 73.0489 21.54C73.7422 21.54 74.3449 21.6787 74.8569 21.956C75.3795 22.2227 75.7955 22.5587 76.1049 22.964V21.684H77.9449V30.5H76.1049V29.188C75.7955 29.604 75.3742 29.9507 74.8409 30.228C74.3075 30.5053 73.6995 30.644 73.0169 30.644C72.2595 30.644 71.5662 30.452 70.9369 30.068C70.3075 29.6733 69.8062 29.1293 69.4329 28.436C69.0702 27.732 68.8889 26.9373 68.8889 26.052ZM76.1049 26.084C76.1049 25.476 75.9769 24.948 75.7209 24.5C75.4755 24.052 75.1502 23.7107 74.7449 23.476C74.3395 23.2413 73.9022 23.124 73.4329 23.124C72.9635 23.124 72.5262 23.2413 72.1209 23.476C71.7155 23.7 71.3849 24.036 71.1289 24.484C70.8835 24.9213 70.7609 25.444 70.7609 26.052C70.7609 26.66 70.8835 27.1933 71.1289 27.652C71.3849 28.1107 71.7155 28.4627 72.1209 28.708C72.5369 28.9427 72.9742 29.06 73.4329 29.06C73.9022 29.06 74.3395 28.9427 74.7449 28.708C75.1502 28.4733 75.4755 28.132 75.7209 27.684C75.9769 27.2253 76.1049 26.692 76.1049 26.084ZM86.3209 22.996C86.6302 22.5693 87.0515 22.2227 87.5849 21.956C88.1289 21.6787 88.7315 21.54 89.3929 21.54C90.1715 21.54 90.8755 21.7267 91.5049 22.1C92.1342 22.4733 92.6302 23.0067 92.9929 23.7C93.3555 24.3827 93.5369 25.1667 93.5369 26.052C93.5369 26.9373 93.3555 27.732 92.9929 28.436C92.6302 29.1293 92.1289 29.6733 91.4889 30.068C90.8595 30.452 90.1609 30.644 89.3929 30.644C88.7102 30.644 88.1022 30.5107 87.5689 30.244C87.0462 29.9773 86.6302 29.636 86.3209 29.22V30.5H84.4969V18.66H86.3209V22.996ZM91.6809 26.052C91.6809 25.444 91.5529 24.9213 91.2969 24.484C91.0515 24.036 90.7209 23.7 90.3049 23.476C89.8995 23.2413 89.4622 23.124 88.9929 23.124C88.5342 23.124 88.0969 23.2413 87.6809 23.476C87.2755 23.7107 86.9449 24.052 86.6889 24.5C86.4435 24.948 86.3209 25.476 86.3209 26.084C86.3209 26.692 86.4435 27.2253 86.6889 27.684C86.9449 28.132 87.2755 28.4733 87.6809 28.708C88.0969 28.9427 88.5342 29.06 88.9929 29.06C89.4622 29.06 89.8995 28.9427 90.3049 28.708C90.7209 28.4627 91.0515 28.1107 91.2969 27.652C91.5529 27.1933 91.6809 26.66 91.6809 26.052ZM103.325 21.684V30.5H101.501V29.46C101.213 29.8227 100.834 30.1107 100.365 30.324C99.906 30.5267 99.4153 30.628 98.8926 30.628C98.1993 30.628 97.5753 30.484 97.0206 30.196C96.4766 29.908 96.0446 29.4813 95.7246 28.916C95.4153 28.3507 95.2606 27.668 95.2606 26.868V21.684H97.0686V26.596C97.0686 27.3853 97.266 27.9933 97.6606 28.42C98.0553 28.836 98.594 29.044 99.2766 29.044C99.9593 29.044 100.498 28.836 100.893 28.42C101.298 27.9933 101.501 27.3853 101.501 26.596V21.684H103.325ZM113.667 21.684L108.259 34.644H106.371L108.163 30.356L104.691 21.684H106.723L109.203 28.404L111.779 21.684H113.667ZM123.124 25.876C123.124 26.2067 123.102 26.5053 123.06 26.772H116.324C116.377 27.476 116.638 28.0413 117.108 28.468C117.577 28.8947 118.153 29.108 118.836 29.108C119.817 29.108 120.51 28.6973 120.916 27.876H122.884C122.617 28.6867 122.132 29.3533 121.428 29.876C120.734 30.388 119.87 30.644 118.836 30.644C117.993 30.644 117.236 30.4573 116.564 30.084C115.902 29.7 115.38 29.1667 114.996 28.484C114.622 27.7907 114.436 26.9907 114.436 26.084C114.436 25.1773 114.617 24.3827 114.98 23.7C115.353 23.0067 115.87 22.4733 116.532 22.1C117.204 21.7267 117.972 21.54 118.836 21.54C119.668 21.54 120.409 21.7213 121.06 22.084C121.71 22.4467 122.217 22.9587 122.58 23.62C122.942 24.2707 123.124 25.0227 123.124 25.876ZM121.22 25.3C121.209 24.628 120.969 24.0893 120.5 23.684C120.03 23.2787 119.449 23.076 118.756 23.076C118.126 23.076 117.588 23.2787 117.14 23.684C116.692 24.0787 116.425 24.6173 116.34 25.3H121.22ZM126.743 22.964C127.009 22.516 127.361 22.1693 127.799 21.924C128.247 21.668 128.775 21.54 129.383 21.54V23.428H128.919C128.204 23.428 127.66 23.6093 127.287 23.972C126.924 24.3347 126.743 24.964 126.743 25.86V30.5H124.919V21.684H126.743V22.964Z" fill="url(#paint0_linear_2_1264)"/>
<rect x="1" y="1.5" width="152" height="46" rx="11" stroke="url(#paint1_linear_2_1264)" stroke-width="2"/>
<defs>
<linearGradient id="paint0_linear_2_1264" x1="112.333" y1="12.5" x2="65.777" y2="60.7241" gradientUnits="userSpaceOnUse">
<stop stop-color="#0698F9"/>
<stop offset="1" stop-color="#F906F9"/>
</linearGradient>
<linearGradient id="paint1_linear_2_1264" x1="128.333" y1="0.500009" x2="38.809" y2="67.8614" gradientUnits="userSpaceOnUse">
<stop stop-color="#0698F9"/>
<stop offset="1" stop-color="#F906F9"/>
</linearGradient>
</defs>
</svg>
