<svg width="58" height="24" viewBox="0 0 58 24" fill="none" xmlns="http://www.w3.org/2000/svg">
<path d="M21.8933 7.07333C21.5528 6.73267 21.1485 6.46243 20.7036 6.27805C20.2586 6.09368 19.7817 5.99878 19.3 5.99878C18.8183 5.99878 18.3414 6.09368 17.8964 6.27805C17.4515 6.46243 17.0472 6.73267 16.7067 7.07333L16 7.78L15.2933 7.07333C14.6055 6.38553 13.6727 5.99914 12.7 5.99914C11.7273 5.99914 10.7945 6.38553 10.1067 7.07333C9.41887 7.76112 9.03247 8.69397 9.03247 9.66666C9.03247 10.6394 9.41887 11.5722 10.1067 12.26L10.8133 12.9667L16 18.1533L21.1867 12.9667L21.8933 12.26C22.234 11.9195 22.5042 11.5152 22.6886 11.0702C22.873 10.6253 22.9679 10.1483 22.9679 9.66666C22.9679 9.185 22.873 8.70807 22.6886 8.26309C22.5042 7.81812 22.234 7.41383 21.8933 7.07333Z" fill="url(#paint0_linear_409_5190)" stroke="url(#paint1_linear_409_5190)" stroke-linecap="round" stroke-linejoin="round"/>
<path d="M28.788 8.32V7.324H31.044V16H29.94V8.32H28.788ZM32.7878 15.124C33.8038 14.308 34.5998 13.64 35.1758 13.12C35.7518 12.592 36.2358 12.044 36.6278 11.476C37.0278 10.9 37.2278 10.336 37.2278 9.784C37.2278 9.264 37.0998 8.856 36.8438 8.56C36.5958 8.256 36.1918 8.104 35.6318 8.104C35.0878 8.104 34.6638 8.276 34.3598 8.62C34.0638 8.956 33.9038 9.408 33.8798 9.976H32.8238C32.8558 9.08 33.1278 8.388 33.6398 7.9C34.1518 7.412 34.8118 7.168 35.6198 7.168C36.4438 7.168 37.0958 7.396 37.5758 7.852C38.0638 8.308 38.3078 8.936 38.3078 9.736C38.3078 10.4 38.1078 11.048 37.7078 11.68C37.3158 12.304 36.8678 12.856 36.3638 13.336C35.8598 13.808 35.2158 14.36 34.4318 14.992H38.5598V15.904H32.7878V15.124ZM39.5341 8.32V7.324H41.7901V16H40.6861V8.32H39.5341ZM43.5339 15.124C44.5499 14.308 45.3459 13.64 45.9219 13.12C46.4979 12.592 46.9819 12.044 47.3739 11.476C47.7739 10.9 47.9739 10.336 47.9739 9.784C47.9739 9.264 47.8459 8.856 47.5899 8.56C47.3419 8.256 46.9379 8.104 46.3779 8.104C45.8339 8.104 45.4099 8.276 45.1059 8.62C44.8099 8.956 44.6499 9.408 44.6259 9.976H43.5699C43.6019 9.08 43.8739 8.388 44.3859 7.9C44.8979 7.412 45.5579 7.168 46.3659 7.168C47.1899 7.168 47.8419 7.396 48.3219 7.852C48.8099 8.308 49.0539 8.936 49.0539 9.736C49.0539 10.4 48.8539 11.048 48.4539 11.68C48.0619 12.304 47.6139 12.856 47.1099 13.336C46.6059 13.808 45.9619 14.36 45.1779 14.992H49.3059V15.904H43.5339V15.124ZM50.2802 8.32V7.324H52.5362V16H51.4322V8.32H50.2802Z" fill="#9D9BB9"/>
<defs>
<linearGradient id="paint0_linear_409_5190" x1="20.6453" y1="5.99878" x2="8.81326" y2="9.18028" gradientUnits="userSpaceOnUse">
<stop stop-color="#0698F9"/>
<stop offset="1" stop-color="#F906F9"/>
</linearGradient>
<linearGradient id="paint1_linear_409_5190" x1="20.6453" y1="5.99878" x2="8.81326" y2="9.18028" gradientUnits="userSpaceOnUse">
<stop stop-color="#0698F9"/>
<stop offset="1" stop-color="#F906F9"/>
</linearGradient>
</defs>
</svg>
